<svg xmlns="http://www.w3.org/2000/svg" version="1.1" xmlns:xlink="http://www.w3.org/1999/xlink" xmlns:svgjs="http://svgjs.com/svgjs" width="1440" height="560" preserveAspectRatio="none" viewBox="0 0 1440 560"><g mask="url(&quot;#SvgjsMask1000&quot;)" fill="none"><rect width="1440" height="560" x="0" y="0" fill="#0e2a47"></rect><path d="M-41.86 371.92L-41.86 371.92" stroke="#132e65" stroke-width="1.5"></path><path d="M-41.86 371.92L-49.25 504.54" stroke="#132e65" stroke-width="1.5"></path><path d="M-41.86 371.92L95.47 358.81" stroke="#132e65" stroke-width="1.5"></path><path d="M-41.86 371.92L68.31 517.07" stroke="#132e65" stroke-width="1.5"></path><path d="M-41.86 371.92L220.95 400.31" stroke="#132e65" stroke-width="1.5"></path><path d="M-41.86 371.92L196.25 494.45" stroke="#132e65" stroke-width="1.5"></path><path d="M-49.25 504.54L-49.25 504.54" stroke="#132e65" stroke-width="1.5"></path><path d="M-49.25 504.54L68.31 517.07" stroke="#132e65" stroke-width="1.5"></path><path d="M-49.25 504.54L-100.72 678.65" stroke="#132e65" stroke-width="1.5"></path><path d="M-49.25 504.54L95.47 358.81" stroke="#132e65" stroke-width="1.5"></path><path d="M-49.25 504.54L44.82 689.78" stroke="#132e65" stroke-width="1.5"></path><path d="M-49.25 504.54L196.25 494.45" stroke="#132e65" stroke-width="1.5"></path><path d="M-100.72 678.65L-100.72 678.65" stroke="#132e65" stroke-width="1.5"></path><path d="M-100.72 678.65L44.82 689.78" stroke="#132e65" stroke-width="1.5"></path><path d="M-100.72 678.65L68.31 517.07" stroke="#132e65" stroke-width="1.5"></path><path d="M-100.72 678.65L-41.86 371.92" stroke="#132e65" stroke-width="1.5"></path><path d="M-100.72 678.65L220.35 640.66" stroke="#132e65" stroke-width="1.5"></path><path d="M95.47 358.81L95.47 358.81" stroke="#132e65" stroke-width="1.5"></path><path d="M95.47 358.81L220.95 400.31" stroke="#132e65" stroke-width="1.5"></path><path d="M95.47 358.81L68.31 517.07" stroke="#132e65" stroke-width="1.5"></path><path d="M68.31 517.07L68.31 517.07" stroke="#132e65" stroke-width="1.5"></path><path d="M68.31 517.07L196.25 494.45" stroke="#132e65" stroke-width="1.5"></path><path d="M68.31 517.07L44.82 689.78" stroke="#132e65" stroke-width="1.5"></path><path d="M44.82 689.78L44.82 689.78" stroke="#132e65" stroke-width="1.5"></path><path d="M44.82 689.78L220.35 640.66" stroke="#132e65" stroke-width="1.5"></path><path d="M44.82 689.78L196.25 494.45" stroke="#132e65" stroke-width="1.5"></path><path d="M44.82 689.78L-41.86 371.92" stroke="#132e65" stroke-width="1.5"></path><path d="M220.95 400.31L220.95 400.31" stroke="#132e65" stroke-width="1.5"></path><path d="M220.95 400.31L196.25 494.45" stroke="#132e65" stroke-width="1.5"></path><path d="M220.95 400.31L379.94 342.7" stroke="#132e65" stroke-width="1.5"></path><path d="M220.95 400.31L68.31 517.07" stroke="#132e65" stroke-width="1.5"></path><path d="M220.95 400.31L393.88 498.91" stroke="#132e65" stroke-width="1.5"></path><path d="M220.95 400.31L220.35 640.66" stroke="#132e65" stroke-width="1.5"></path><path d="M196.25 494.45L196.25 494.45" stroke="#132e65" stroke-width="1.5"></path><path d="M220.35 640.66L220.35 640.66" stroke="#132e65" stroke-width="1.5"></path><path d="M220.35 640.66L196.25 494.45" stroke="#132e65" stroke-width="1.5"></path><path d="M220.35 640.66L68.31 517.07" stroke="#132e65" stroke-width="1.5"></path><path d="M220.35 640.66L410.04 695.38" stroke="#132e65" stroke-width="1.5"></path><path d="M379.94 342.7L379.94 342.7" stroke="#132e65" stroke-width="1.5"></path><path d="M379.94 342.7L515.63 411.91" stroke="#132e65" stroke-width="1.5"></path><path d="M379.94 342.7L393.88 498.91" stroke="#132e65" stroke-width="1.5"></path><path d="M393.88 498.91L393.88 498.91" stroke="#132e65" stroke-width="1.5"></path><path d="M393.88 498.91L503.08 543.88" stroke="#132e65" stroke-width="1.5"></path><path d="M393.88 498.91L515.63 411.91" stroke="#132e65" stroke-width="1.5"></path><path d="M393.88 498.91L410.04 695.38" stroke="#132e65" stroke-width="1.5"></path><path d="M393.88 498.91L196.25 494.45" stroke="#132e65" stroke-width="1.5"></path><path d="M410.04 695.38L410.04 695.38" stroke="#132e65" stroke-width="1.5"></path><path d="M410.04 695.38L544.94 642.83" stroke="#132e65" stroke-width="1.5"></path><path d="M410.04 695.38L503.08 543.88" stroke="#132e65" stroke-width="1.5"></path><path d="M515.63 411.91L515.63 411.91" stroke="#132e65" stroke-width="1.5"></path><path d="M515.63 411.91L503.08 543.88" stroke="#132e65" stroke-width="1.5"></path><path d="M515.63 411.91L681.39 394.38" stroke="#132e65" stroke-width="1.5"></path><path d="M503.08 543.88L503.08 543.88" stroke="#132e65" stroke-width="1.5"></path><path d="M503.08 543.88L544.94 642.83" stroke="#132e65" stroke-width="1.5"></path><path d="M544.94 642.83L544.94 642.83" stroke="#132e65" stroke-width="1.5"></path><path d="M544.94 642.83L703.5 701.65" stroke="#132e65" stroke-width="1.5"></path><path d="M544.94 642.83L692.04 499.07" stroke="#132e65" stroke-width="1.5"></path><path d="M544.94 642.83L393.88 498.91" stroke="#132e65" stroke-width="1.5"></path><path d="M679.45 242.21L679.45 242.21" stroke="#132e65" stroke-width="1.5"></path><path d="M679.45 242.21L809.7 216.3" stroke="#132e65" stroke-width="1.5"></path><path d="M679.45 242.21L681.39 394.38" stroke="#132e65" stroke-width="1.5"></path><path d="M679.45 242.21L847.98 391.36" stroke="#132e65" stroke-width="1.5"></path><path d="M679.45 242.21L515.63 411.91" stroke="#132e65" stroke-width="1.5"></path><path d="M679.45 242.21L692.04 499.07" stroke="#132e65" stroke-width="1.5"></path><path d="M679.45 242.21L938.04 83.46" stroke="#132e65" stroke-width="1.5"></path><path d="M681.39 394.38L681.39 394.38" stroke="#132e65" stroke-width="1.5"></path><path d="M681.39 394.38L692.04 499.07" stroke="#132e65" stroke-width="1.5"></path><path d="M681.39 394.38L847.98 391.36" stroke="#132e65" stroke-width="1.5"></path><path d="M692.04 499.07L692.04 499.07" stroke="#132e65" stroke-width="1.5"></path><path d="M692.04 499.07L808.07 560.45" stroke="#132e65" stroke-width="1.5"></path><path d="M692.04 499.07L847.98 391.36" stroke="#132e65" stroke-width="1.5"></path><path d="M692.04 499.07L503.08 543.88" stroke="#132e65" stroke-width="1.5"></path><path d="M692.04 499.07L515.63 411.91" stroke="#132e65" stroke-width="1.5"></path><path d="M703.5 701.65L703.5 701.65" stroke="#132e65" stroke-width="1.5"></path><path d="M703.5 701.65L812.98 707.91" stroke="#132e65" stroke-width="1.5"></path><path d="M703.5 701.65L808.07 560.45" stroke="#132e65" stroke-width="1.5"></path><path d="M703.5 701.65L692.04 499.07" stroke="#132e65" stroke-width="1.5"></path><path d="M809.7 216.3L809.7 216.3" stroke="#132e65" stroke-width="1.5"></path><path d="M809.7 216.3L847.98 391.36" stroke="#132e65" stroke-width="1.5"></path><path d="M809.7 216.3L990.94 227.06" stroke="#132e65" stroke-width="1.5"></path><path d="M809.7 216.3L938.04 83.46" stroke="#132e65" stroke-width="1.5"></path><path d="M847.98 391.36L847.98 391.36" stroke="#132e65" stroke-width="1.5"></path><path d="M847.98 391.36L990.6 408.17" stroke="#132e65" stroke-width="1.5"></path><path d="M847.98 391.36L808.07 560.45" stroke="#132e65" stroke-width="1.5"></path><path d="M808.07 560.45L808.07 560.45" stroke="#132e65" stroke-width="1.5"></path><path d="M808.07 560.45L812.98 707.91" stroke="#132e65" stroke-width="1.5"></path><path d="M812.98 707.91L812.98 707.91" stroke="#132e65" stroke-width="1.5"></path><path d="M812.98 707.91L978.91 650.01" stroke="#132e65" stroke-width="1.5"></path><path d="M812.98 707.91L692.04 499.07" stroke="#132e65" stroke-width="1.5"></path><path d="M812.98 707.91L544.94 642.83" stroke="#132e65" stroke-width="1.5"></path><path d="M942.72 -75.56L942.72 -75.56" stroke="#132e65" stroke-width="1.5"></path><path d="M942.72 -75.56L938.04 83.46" stroke="#132e65" stroke-width="1.5"></path><path d="M942.72 -75.56L1090.85 39.45" stroke="#132e65" stroke-width="1.5"></path><path d="M942.72 -75.56L990.94 227.06" stroke="#132e65" stroke-width="1.5"></path><path d="M942.72 -75.56L809.7 216.3" stroke="#132e65" stroke-width="1.5"></path><path d="M938.04 83.46L938.04 83.46" stroke="#132e65" stroke-width="1.5"></path><path d="M938.04 83.46L990.94 227.06" stroke="#132e65" stroke-width="1.5"></path><path d="M938.04 83.46L1090.85 39.45" stroke="#132e65" stroke-width="1.5"></path><path d="M938.04 83.46L1150.7 253.02" stroke="#132e65" stroke-width="1.5"></path><path d="M990.94 227.06L990.94 227.06" stroke="#132e65" stroke-width="1.5"></path><path d="M990.94 227.06L1150.7 253.02" stroke="#132e65" stroke-width="1.5"></path><path d="M990.6 408.17L990.6 408.17" stroke="#132e65" stroke-width="1.5"></path><path d="M990.6 408.17L995.1 493.61" stroke="#132e65" stroke-width="1.5"></path><path d="M995.1 493.61L995.1 493.61" stroke="#132e65" stroke-width="1.5"></path><path d="M995.1 493.61L978.91 650.01" stroke="#132e65" stroke-width="1.5"></path><path d="M995.1 493.61L847.98 391.36" stroke="#132e65" stroke-width="1.5"></path><path d="M978.91 650.01L978.91 650.01" stroke="#132e65" stroke-width="1.5"></path><path d="M978.91 650.01L1114.55 686.73" stroke="#132e65" stroke-width="1.5"></path><path d="M978.91 650.01L808.07 560.45" stroke="#132e65" stroke-width="1.5"></path><path d="M978.91 650.01L990.6 408.17" stroke="#132e65" stroke-width="1.5"></path><path d="M978.91 650.01L703.5 701.65" stroke="#132e65" stroke-width="1.5"></path><path d="M1090.85 39.45L1090.85 39.45" stroke="#132e65" stroke-width="1.5"></path><path d="M1090.85 39.45L1242.01 111.47" stroke="#132e65" stroke-width="1.5"></path><path d="M1090.85 39.45L990.94 227.06" stroke="#132e65" stroke-width="1.5"></path><path d="M1090.85 39.45L1150.7 253.02" stroke="#132e65" stroke-width="1.5"></path><path d="M1090.85 39.45L1279.84 -94.63" stroke="#132e65" stroke-width="1.5"></path><path d="M1150.7 253.02L1150.7 253.02" stroke="#132e65" stroke-width="1.5"></path><path d="M1150.7 253.02L1153.66 356.29" stroke="#132e65" stroke-width="1.5"></path><path d="M1153.66 356.29L1153.66 356.29" stroke="#132e65" stroke-width="1.5"></path><path d="M1153.66 356.29L1270.25 369.37" stroke="#132e65" stroke-width="1.5"></path><path d="M1153.66 356.29L1270.71 257.87" stroke="#132e65" stroke-width="1.5"></path><path d="M1153.66 356.29L990.6 408.17" stroke="#132e65" stroke-width="1.5"></path><path d="M1153.66 356.29L1262.71 492.24" stroke="#132e65" stroke-width="1.5"></path><path d="M1153.66 356.29L990.94 227.06" stroke="#132e65" stroke-width="1.5"></path><path d="M1114.55 686.73L1114.55 686.73" stroke="#132e65" stroke-width="1.5"></path><path d="M1114.55 686.73L1277.86 712.25" stroke="#132e65" stroke-width="1.5"></path><path d="M1114.55 686.73L995.1 493.61" stroke="#132e65" stroke-width="1.5"></path><path d="M1279.84 -94.63L1279.84 -94.63" stroke="#132e65" stroke-width="1.5"></path><path d="M1279.84 -94.63L1407.31 -40.11" stroke="#132e65" stroke-width="1.5"></path><path d="M1279.84 -94.63L1242.01 111.47" stroke="#132e65" stroke-width="1.5"></path><path d="M1242.01 111.47L1242.01 111.47" stroke="#132e65" stroke-width="1.5"></path><path d="M1242.01 111.47L1270.71 257.87" stroke="#132e65" stroke-width="1.5"></path><path d="M1242.01 111.47L1150.7 253.02" stroke="#132e65" stroke-width="1.5"></path><path d="M1242.01 111.47L1447.76 86.46" stroke="#132e65" stroke-width="1.5"></path><path d="M1270.71 257.87L1270.71 257.87" stroke="#132e65" stroke-width="1.5"></path><path d="M1270.71 257.87L1270.25 369.37" stroke="#132e65" stroke-width="1.5"></path><path d="M1270.71 257.87L1150.7 253.02" stroke="#132e65" stroke-width="1.5"></path><path d="M1270.25 369.37L1270.25 369.37" stroke="#132e65" stroke-width="1.5"></path><path d="M1262.71 492.24L1262.71 492.24" stroke="#132e65" stroke-width="1.5"></path><path d="M1262.71 492.24L1270.25 369.37" stroke="#132e65" stroke-width="1.5"></path><path d="M1262.71 492.24L1405.74 544.48" stroke="#132e65" stroke-width="1.5"></path><path d="M1277.86 712.25L1277.86 712.25" stroke="#132e65" stroke-width="1.5"></path><path d="M1277.86 712.25L1419.64 675.51" stroke="#132e65" stroke-width="1.5"></path><path d="M1407.31 -40.11L1407.31 -40.11" stroke="#132e65" stroke-width="1.5"></path><path d="M1407.31 -40.11L1447.76 86.46" stroke="#132e65" stroke-width="1.5"></path><path d="M1407.31 -40.11L1566.13 -81.2" stroke="#132e65" stroke-width="1.5"></path><path d="M1407.31 -40.11L1570.44 70.89" stroke="#132e65" stroke-width="1.5"></path><path d="M1447.76 86.46L1447.76 86.46" stroke="#132e65" stroke-width="1.5"></path><path d="M1447.76 86.46L1570.44 70.89" stroke="#132e65" stroke-width="1.5"></path><path d="M1449.46 225.27L1449.46 225.27" stroke="#132e65" stroke-width="1.5"></path><path d="M1449.46 225.27L1558.16 232.96" stroke="#132e65" stroke-width="1.5"></path><path d="M1449.46 225.27L1447.76 86.46" stroke="#132e65" stroke-width="1.5"></path><path d="M1449.46 225.27L1461.01 372.78" stroke="#132e65" stroke-width="1.5"></path><path d="M1449.46 225.27L1270.71 257.87" stroke="#132e65" stroke-width="1.5"></path><path d="M1449.46 225.27L1570.44 70.89" stroke="#132e65" stroke-width="1.5"></path><path d="M1449.46 225.27L1543.36 408.8" stroke="#132e65" stroke-width="1.5"></path><path d="M1461.01 372.78L1461.01 372.78" stroke="#132e65" stroke-width="1.5"></path><path d="M1461.01 372.78L1543.36 408.8" stroke="#132e65" stroke-width="1.5"></path><path d="M1461.01 372.78L1558.16 232.96" stroke="#132e65" stroke-width="1.5"></path><path d="M1405.74 544.48L1405.74 544.48" stroke="#132e65" stroke-width="1.5"></path><path d="M1405.74 544.48L1419.64 675.51" stroke="#132e65" stroke-width="1.5"></path><path d="M1405.74 544.48L1461.01 372.78" stroke="#132e65" stroke-width="1.5"></path><path d="M1419.64 675.51L1419.64 675.51" stroke="#132e65" stroke-width="1.5"></path><path d="M1419.64 675.51L1583.17 662.46" stroke="#132e65" stroke-width="1.5"></path><path d="M1419.64 675.51L1586.1 558.63" stroke="#132e65" stroke-width="1.5"></path><path d="M1566.13 -81.2L1566.13 -81.2" stroke="#132e65" stroke-width="1.5"></path><path d="M1566.13 -81.2L1570.44 70.89" stroke="#132e65" stroke-width="1.5"></path><path d="M1566.13 -81.2L1447.76 86.46" stroke="#132e65" stroke-width="1.5"></path><path d="M1570.44 70.89L1570.44 70.89" stroke="#132e65" stroke-width="1.5"></path><path d="M1570.44 70.89L1558.16 232.96" stroke="#132e65" stroke-width="1.5"></path><path d="M1558.16 232.96L1558.16 232.96" stroke="#132e65" stroke-width="1.5"></path><path d="M1543.36 408.8L1543.36 408.8" stroke="#132e65" stroke-width="1.5"></path><path d="M1543.36 408.8L1586.1 558.63" stroke="#132e65" stroke-width="1.5"></path><path d="M1543.36 408.8L1558.16 232.96" stroke="#132e65" stroke-width="1.5"></path><path d="M1543.36 408.8L1405.74 544.48" stroke="#132e65" stroke-width="1.5"></path><path d="M1586.1 558.63L1586.1 558.63" stroke="#132e65" stroke-width="1.5"></path><path d="M1586.1 558.63L1583.17 662.46" stroke="#132e65" stroke-width="1.5"></path><path d="M1586.1 558.63L1405.74 544.48" stroke="#132e65" stroke-width="1.5"></path><path d="M1586.1 558.63L1461.01 372.78" stroke="#132e65" stroke-width="1.5"></path><path d="M1583.17 662.46L1583.17 662.46" stroke="#132e65" stroke-width="1.5"></path><path d="M1583.17 662.46L1405.74 544.48" stroke="#132e65" stroke-width="1.5"></path><path d="M1583.17 662.46L1543.36 408.8" stroke="#132e65" stroke-width="1.5"></path><path d="M1583.17 662.46L1277.86 712.25" stroke="#132e65" stroke-width="1.5"></path><path d="M1583.17 662.46L1461.01 372.78" stroke="#132e65" stroke-width="1.5"></path><circle r="5" cx="-41.86" cy="371.92" fill="#132e65"></circle><circle r="5" cx="-49.25" cy="504.54" fill="#132e65"></circle><circle r="5" cx="-100.72" cy="678.65" fill="#132e65"></circle><circle r="5" cx="95.47" cy="358.81" fill="#132e65"></circle><circle r="5" cx="68.31" cy="517.07" fill="#132e65"></circle><circle r="5" cx="44.82" cy="689.78" fill="#132e65"></circle><circle r="5" cx="220.95" cy="400.31" fill="#132e65"></circle><circle r="5" cx="196.25" cy="494.45" fill="#132e65"></circle><circle r="5" cx="220.35" cy="640.66" fill="#132e65"></circle><circle r="5" cx="379.94" cy="342.7" fill="#132e65"></circle><circle r="5" cx="393.88" cy="498.91" fill="#132e65"></circle><circle r="5" cx="410.04" cy="695.38" fill="#132e65"></circle><circle r="5" cx="515.63" cy="411.91" fill="#132e65"></circle><circle r="5" cx="503.08" cy="543.88" fill="#132e65"></circle><circle r="5" cx="544.94" cy="642.83" fill="#132e65"></circle><circle r="5" cx="679.45" cy="242.21" fill="#132e65"></circle><circle r="5" cx="681.39" cy="394.38" fill="#132e65"></circle><circle r="5" cx="692.04" cy="499.07" fill="#132e65"></circle><circle r="5" cx="703.5" cy="701.65" fill="#132e65"></circle><circle r="5" cx="809.7" cy="216.3" fill="#132e65"></circle><circle r="5" cx="847.98" cy="391.36" fill="#132e65"></circle><circle r="5" cx="808.07" cy="560.45" fill="#132e65"></circle><circle r="5" cx="812.98" cy="707.91" fill="#132e65"></circle><circle r="5" cx="942.72" cy="-75.56" fill="#132e65"></circle><circle r="5" cx="938.04" cy="83.46" fill="#132e65"></circle><circle r="5" cx="990.94" cy="227.06" fill="#132e65"></circle><circle r="5" cx="990.6" cy="408.17" fill="#132e65"></circle><circle r="5" cx="995.1" cy="493.61" fill="#132e65"></circle><circle r="5" cx="978.91" cy="650.01" fill="#132e65"></circle><circle r="5" cx="1090.85" cy="39.45" fill="#132e65"></circle><circle r="5" cx="1150.7" cy="253.02" fill="#132e65"></circle><circle r="5" cx="1153.66" cy="356.29" fill="#132e65"></circle><circle r="5" cx="1114.55" cy="686.73" fill="#132e65"></circle><circle r="5" cx="1279.84" cy="-94.63" fill="#132e65"></circle><circle r="5" cx="1242.01" cy="111.47" fill="#132e65"></circle><circle r="5" cx="1270.71" cy="257.87" fill="#132e65"></circle><circle r="5" cx="1270.25" cy="369.37" fill="#132e65"></circle><circle r="5" cx="1262.71" cy="492.24" fill="#132e65"></circle><circle r="5" cx="1277.86" cy="712.25" fill="#132e65"></circle><circle r="5" cx="1407.31" cy="-40.11" fill="#132e65"></circle><circle r="5" cx="1447.76" cy="86.46" fill="#132e65"></circle><circle r="5" cx="1449.46" cy="225.27" fill="#132e65"></circle><circle r="5" cx="1461.01" cy="372.78" fill="#132e65"></circle><circle r="5" cx="1405.74" cy="544.48" fill="#132e65"></circle><circle r="5" cx="1419.64" cy="675.51" fill="#132e65"></circle><circle r="5" cx="1566.13" cy="-81.2" fill="#132e65"></circle><circle r="5" cx="1570.44" cy="70.89" fill="#132e65"></circle><circle r="5" cx="1558.16" cy="232.96" fill="#132e65"></circle><circle r="5" cx="1543.36" cy="408.8" fill="#132e65"></circle><circle r="5" cx="1586.1" cy="558.63" fill="#132e65"></circle><circle r="5" cx="1583.17" cy="662.46" fill="#132e65"></circle><path d="M550.47 533.99L550.47 533.99" stroke="hsl(228.5, 77.2%, 51.5%)" stroke-width="1.5"></path><path d="M550.47 533.99L547.08 669.56" stroke="hsl(228.5, 77.2%, 51.5%)" stroke-width="1.5"></path><path d="M550.47 533.99L686.59 502.04" stroke="hsl(228.5, 77.2%, 51.5%)" stroke-width="1.5"></path><path d="M550.47 533.99L640.85 398.48" stroke="hsl(228.5, 77.2%, 51.5%)" stroke-width="1.5"></path><path d="M550.47 533.99L411.98 685.66" stroke="hsl(228.5, 77.2%, 51.5%)" stroke-width="1.5"></path><path d="M550.47 533.99L343.15 545.88" stroke="hsl(228.5, 77.2%, 51.5%)" stroke-width="1.5"></path><path d="M550.47 533.99L711.47 672.38" stroke="hsl(228.5, 77.2%, 51.5%)" stroke-width="1.5"></path><path d="M1097 245.3L1097 245.3" stroke="hsl(228.5, 77.2%, 51.5%)" stroke-width="1.5"></path><path d="M1097 245.3L977.23 339.59" stroke="hsl(228.5, 77.2%, 51.5%)" stroke-width="1.5"></path><path d="M1097 245.3L1143.52 394.88" stroke="hsl(228.5, 77.2%, 51.5%)" stroke-width="1.5"></path><path d="M1097 245.3L1304.13 382.33" stroke="hsl(228.5, 77.2%, 51.5%)" stroke-width="1.5"></path><path d="M1097 245.3L1125.7 498.76" stroke="hsl(228.5, 77.2%, 51.5%)" stroke-width="1.5"></path><path d="M1097 245.3L828.11 344.63" stroke="hsl(228.5, 77.2%, 51.5%)" stroke-width="1.5"></path><path d="M1125.7 498.76L1125.7 498.76" stroke="hsl(228.5, 77.2%, 51.5%)" stroke-width="1.5"></path><path d="M1125.7 498.76L1143.52 394.88" stroke="hsl(228.5, 77.2%, 51.5%)" stroke-width="1.5"></path><path d="M1125.7 498.76L1253.11 509.4" stroke="hsl(228.5, 77.2%, 51.5%)" stroke-width="1.5"></path><path d="M1125.7 498.76L976.3 506.4" stroke="hsl(228.5, 77.2%, 51.5%)" stroke-width="1.5"></path><path d="M1253.11 509.4L1253.11 509.4" stroke="hsl(228.5, 77.2%, 51.5%)" stroke-width="1.5"></path><path d="M1253.11 509.4L1304.13 382.33" stroke="hsl(228.5, 77.2%, 51.5%)" stroke-width="1.5"></path><path d="M1253.11 509.4L1143.52 394.88" stroke="hsl(228.5, 77.2%, 51.5%)" stroke-width="1.5"></path><path d="M1253.11 509.4L1288.48 677.66" stroke="hsl(228.5, 77.2%, 51.5%)" stroke-width="1.5"></path><path d="M1253.11 509.4L1422.57 401.9" stroke="hsl(228.5, 77.2%, 51.5%)" stroke-width="1.5"></path><path d="M1417.15 104.43L1417.15 104.43" stroke="hsl(228.5, 77.2%, 51.5%)" stroke-width="1.5"></path><path d="M1417.15 104.43L1312.01 49.73" stroke="hsl(228.5, 77.2%, 51.5%)" stroke-width="1.5"></path><path d="M1417.15 104.43L1560.56 103.84" stroke="hsl(228.5, 77.2%, 51.5%)" stroke-width="1.5"></path><path d="M1417.15 104.43L1424.11 255.98" stroke="hsl(228.5, 77.2%, 51.5%)" stroke-width="1.5"></path><path d="M1417.15 104.43L1561.91 243.47" stroke="hsl(228.5, 77.2%, 51.5%)" stroke-width="1.5"></path><path d="M1417.15 104.43L1400.31 -106.72" stroke="hsl(228.5, 77.2%, 51.5%)" stroke-width="1.5"></path><path d="M1417.15 104.43L1247.52 -88.66" stroke="hsl(228.5, 77.2%, 51.5%)" stroke-width="1.5"></path><path d="M1560.56 103.84L1560.56 103.84" stroke="hsl(228.5, 77.2%, 51.5%)" stroke-width="1.5"></path><path d="M1560.56 103.84L1561.91 243.47" stroke="hsl(228.5, 77.2%, 51.5%)" stroke-width="1.5"></path><path d="M1544.62 367.25L1544.62 367.25" stroke="hsl(228.5, 77.2%, 51.5%)" stroke-width="1.5"></path><path d="M1544.62 367.25L1561.91 243.47" stroke="hsl(228.5, 77.2%, 51.5%)" stroke-width="1.5"></path><path d="M1544.62 367.25L1422.57 401.9" stroke="hsl(228.5, 77.2%, 51.5%)" stroke-width="1.5"></path><path d="M1544.62 367.25L1424.11 255.98" stroke="hsl(228.5, 77.2%, 51.5%)" stroke-width="1.5"></path><path d="M-90.86 522.42L-90.86 522.42" stroke="hsl(228.5, 77.2%, 51.5%)" stroke-width="1.5"></path><path d="M-90.86 522.42L-62.75 687.21" stroke="hsl(228.5, 77.2%, 51.5%)" stroke-width="1.5"></path><path d="M-90.86 522.42L93.16 546.65" stroke="hsl(228.5, 77.2%, 51.5%)" stroke-width="1.5"></path><path d="M-62.75 687.21L-62.75 687.21" stroke="hsl(228.5, 77.2%, 51.5%)" stroke-width="1.5"></path><path d="M-62.75 687.21L55.3 690.81" stroke="hsl(228.5, 77.2%, 51.5%)" stroke-width="1.5"></path><path d="M-62.75 687.21L93.16 546.65" stroke="hsl(228.5, 77.2%, 51.5%)" stroke-width="1.5"></path><path d="M-62.75 687.21L228.42 677.42" stroke="hsl(228.5, 77.2%, 51.5%)" stroke-width="1.5"></path><path d="M-62.75 687.21L225.02 532.81" stroke="hsl(228.5, 77.2%, 51.5%)" stroke-width="1.5"></path><path d="M93.16 546.65L93.16 546.65" stroke="hsl(228.5, 77.2%, 51.5%)" stroke-width="1.5"></path><path d="M93.16 546.65L225.02 532.81" stroke="hsl(228.5, 77.2%, 51.5%)" stroke-width="1.5"></path><path d="M93.16 546.65L55.3 690.81" stroke="hsl(228.5, 77.2%, 51.5%)" stroke-width="1.5"></path><path d="M93.16 546.65L228.42 677.42" stroke="hsl(228.5, 77.2%, 51.5%)" stroke-width="1.5"></path><path d="M93.16 546.65L343.15 545.88" stroke="hsl(228.5, 77.2%, 51.5%)" stroke-width="1.5"></path><path d="M55.3 690.81L55.3 690.81" stroke="hsl(228.5, 77.2%, 51.5%)" stroke-width="1.5"></path><path d="M55.3 690.81L228.42 677.42" stroke="hsl(228.5, 77.2%, 51.5%)" stroke-width="1.5"></path><path d="M55.3 690.81L-90.86 522.42" stroke="hsl(228.5, 77.2%, 51.5%)" stroke-width="1.5"></path><path d="M55.3 690.81L225.02 532.81" stroke="hsl(228.5, 77.2%, 51.5%)" stroke-width="1.5"></path><path d="M55.3 690.81L343.15 545.88" stroke="hsl(228.5, 77.2%, 51.5%)" stroke-width="1.5"></path><path d="M225.02 532.81L225.02 532.81" stroke="hsl(228.5, 77.2%, 51.5%)" stroke-width="1.5"></path><path d="M225.02 532.81L343.15 545.88" stroke="hsl(228.5, 77.2%, 51.5%)" stroke-width="1.5"></path><path d="M225.02 532.81L228.42 677.42" stroke="hsl(228.5, 77.2%, 51.5%)" stroke-width="1.5"></path><path d="M225.02 532.81L411.98 685.66" stroke="hsl(228.5, 77.2%, 51.5%)" stroke-width="1.5"></path><path d="M225.02 532.81L-90.86 522.42" stroke="hsl(228.5, 77.2%, 51.5%)" stroke-width="1.5"></path><path d="M228.42 677.42L228.42 677.42" stroke="hsl(228.5, 77.2%, 51.5%)" stroke-width="1.5"></path><path d="M228.42 677.42L343.15 545.88" stroke="hsl(228.5, 77.2%, 51.5%)" stroke-width="1.5"></path><path d="M228.42 677.42L411.98 685.66" stroke="hsl(228.5, 77.2%, 51.5%)" stroke-width="1.5"></path><path d="M343.15 545.88L343.15 545.88" stroke="hsl(228.5, 77.2%, 51.5%)" stroke-width="1.5"></path><path d="M343.15 545.88L411.98 685.66" stroke="hsl(228.5, 77.2%, 51.5%)" stroke-width="1.5"></path><path d="M343.15 545.88L547.08 669.56" stroke="hsl(228.5, 77.2%, 51.5%)" stroke-width="1.5"></path><path d="M411.98 685.66L411.98 685.66" stroke="hsl(228.5, 77.2%, 51.5%)" stroke-width="1.5"></path><path d="M411.98 685.66L547.08 669.56" stroke="hsl(228.5, 77.2%, 51.5%)" stroke-width="1.5"></path><path d="M547.08 669.56L547.08 669.56" stroke="hsl(228.5, 77.2%, 51.5%)" stroke-width="1.5"></path><path d="M640.85 398.48L640.85 398.48" stroke="hsl(228.5, 77.2%, 51.5%)" stroke-width="1.5"></path><path d="M640.85 398.48L686.59 502.04" stroke="hsl(228.5, 77.2%, 51.5%)" stroke-width="1.5"></path><path d="M686.59 502.04L686.59 502.04" stroke="hsl(228.5, 77.2%, 51.5%)" stroke-width="1.5"></path><path d="M686.59 502.04L829.19 554.75" stroke="hsl(228.5, 77.2%, 51.5%)" stroke-width="1.5"></path><path d="M711.47 672.38L711.47 672.38" stroke="hsl(228.5, 77.2%, 51.5%)" stroke-width="1.5"></path><path d="M711.47 672.38L806.6 709.17" stroke="hsl(228.5, 77.2%, 51.5%)" stroke-width="1.5"></path><path d="M711.47 672.38L547.08 669.56" stroke="hsl(228.5, 77.2%, 51.5%)" stroke-width="1.5"></path><path d="M711.47 672.38L829.19 554.75" stroke="hsl(228.5, 77.2%, 51.5%)" stroke-width="1.5"></path><path d="M828.11 344.63L828.11 344.63" stroke="hsl(228.5, 77.2%, 51.5%)" stroke-width="1.5"></path><path d="M828.11 344.63L977.23 339.59" stroke="hsl(228.5, 77.2%, 51.5%)" stroke-width="1.5"></path><path d="M828.11 344.63L640.85 398.48" stroke="hsl(228.5, 77.2%, 51.5%)" stroke-width="1.5"></path><path d="M828.11 344.63L829.19 554.75" stroke="hsl(228.5, 77.2%, 51.5%)" stroke-width="1.5"></path><path d="M828.11 344.63L686.59 502.04" stroke="hsl(228.5, 77.2%, 51.5%)" stroke-width="1.5"></path><path d="M828.11 344.63L976.3 506.4" stroke="hsl(228.5, 77.2%, 51.5%)" stroke-width="1.5"></path><path d="M829.19 554.75L829.19 554.75" stroke="hsl(228.5, 77.2%, 51.5%)" stroke-width="1.5"></path><path d="M829.19 554.75L976.3 506.4" stroke="hsl(228.5, 77.2%, 51.5%)" stroke-width="1.5"></path><path d="M829.19 554.75L806.6 709.17" stroke="hsl(228.5, 77.2%, 51.5%)" stroke-width="1.5"></path><path d="M806.6 709.17L806.6 709.17" stroke="hsl(228.5, 77.2%, 51.5%)" stroke-width="1.5"></path><path d="M806.6 709.17L970.84 642.97" stroke="hsl(228.5, 77.2%, 51.5%)" stroke-width="1.5"></path><path d="M806.6 709.17L686.59 502.04" stroke="hsl(228.5, 77.2%, 51.5%)" stroke-width="1.5"></path><path d="M806.6 709.17L547.08 669.56" stroke="hsl(228.5, 77.2%, 51.5%)" stroke-width="1.5"></path><path d="M806.6 709.17L976.3 506.4" stroke="hsl(228.5, 77.2%, 51.5%)" stroke-width="1.5"></path><path d="M977.23 339.59L977.23 339.59" stroke="hsl(228.5, 77.2%, 51.5%)" stroke-width="1.5"></path><path d="M977.23 339.59L976.3 506.4" stroke="hsl(228.5, 77.2%, 51.5%)" stroke-width="1.5"></path><path d="M976.3 506.4L976.3 506.4" stroke="hsl(228.5, 77.2%, 51.5%)" stroke-width="1.5"></path><path d="M976.3 506.4L970.84 642.97" stroke="hsl(228.5, 77.2%, 51.5%)" stroke-width="1.5"></path><path d="M970.84 642.97L970.84 642.97" stroke="hsl(228.5, 77.2%, 51.5%)" stroke-width="1.5"></path><path d="M970.84 642.97L829.19 554.75" stroke="hsl(228.5, 77.2%, 51.5%)" stroke-width="1.5"></path><path d="M970.84 642.97L1131.87 688.38" stroke="hsl(228.5, 77.2%, 51.5%)" stroke-width="1.5"></path><path d="M970.84 642.97L1125.7 498.76" stroke="hsl(228.5, 77.2%, 51.5%)" stroke-width="1.5"></path><path d="M1143.52 394.88L1143.52 394.88" stroke="hsl(228.5, 77.2%, 51.5%)" stroke-width="1.5"></path><path d="M1143.52 394.88L1304.13 382.33" stroke="hsl(228.5, 77.2%, 51.5%)" stroke-width="1.5"></path><path d="M1143.52 394.88L977.23 339.59" stroke="hsl(228.5, 77.2%, 51.5%)" stroke-width="1.5"></path><path d="M1131.87 688.38L1131.87 688.38" stroke="hsl(228.5, 77.2%, 51.5%)" stroke-width="1.5"></path><path d="M1131.87 688.38L1288.48 677.66" stroke="hsl(228.5, 77.2%, 51.5%)" stroke-width="1.5"></path><path d="M1247.52 -88.66L1247.52 -88.66" stroke="hsl(228.5, 77.2%, 51.5%)" stroke-width="1.5"></path><path d="M1247.52 -88.66L1312.01 49.73" stroke="hsl(228.5, 77.2%, 51.5%)" stroke-width="1.5"></path><path d="M1247.52 -88.66L1400.31 -106.72" stroke="hsl(228.5, 77.2%, 51.5%)" stroke-width="1.5"></path><path d="M1247.52 -88.66L1097 245.3" stroke="hsl(228.5, 77.2%, 51.5%)" stroke-width="1.5"></path><path d="M1312.01 49.73L1312.01 49.73" stroke="hsl(228.5, 77.2%, 51.5%)" stroke-width="1.5"></path><path d="M1312.01 49.73L1400.31 -106.72" stroke="hsl(228.5, 77.2%, 51.5%)" stroke-width="1.5"></path><path d="M1304.13 382.33L1304.13 382.33" stroke="hsl(228.5, 77.2%, 51.5%)" stroke-width="1.5"></path><path d="M1304.13 382.33L1422.57 401.9" stroke="hsl(228.5, 77.2%, 51.5%)" stroke-width="1.5"></path><path d="M1288.48 677.66L1288.48 677.66" stroke="hsl(228.5, 77.2%, 51.5%)" stroke-width="1.5"></path><path d="M1288.48 677.66L1125.7 498.76" stroke="hsl(228.5, 77.2%, 51.5%)" stroke-width="1.5"></path><path d="M1288.48 677.66L1304.13 382.33" stroke="hsl(228.5, 77.2%, 51.5%)" stroke-width="1.5"></path><path d="M1288.48 677.66L1422.57 401.9" stroke="hsl(228.5, 77.2%, 51.5%)" stroke-width="1.5"></path><path d="M1288.48 677.66L1143.52 394.88" stroke="hsl(228.5, 77.2%, 51.5%)" stroke-width="1.5"></path><path d="M1400.31 -106.72L1400.31 -106.72" stroke="hsl(228.5, 77.2%, 51.5%)" stroke-width="1.5"></path><path d="M1424.11 255.98L1424.11 255.98" stroke="hsl(228.5, 77.2%, 51.5%)" stroke-width="1.5"></path><path d="M1424.11 255.98L1561.91 243.47" stroke="hsl(228.5, 77.2%, 51.5%)" stroke-width="1.5"></path><path d="M1424.11 255.98L1422.57 401.9" stroke="hsl(228.5, 77.2%, 51.5%)" stroke-width="1.5"></path><path d="M1422.57 401.9L1422.57 401.9" stroke="hsl(228.5, 77.2%, 51.5%)" stroke-width="1.5"></path><path d="M1561.91 243.47L1561.91 243.47" stroke="hsl(228.5, 77.2%, 51.5%)" stroke-width="1.5"></path><path d="M1596.06 524.3L1596.06 524.3" stroke="hsl(228.5, 77.2%, 51.5%)" stroke-width="1.5"></path><path d="M1596.06 524.3L1544.62 367.25" stroke="hsl(228.5, 77.2%, 51.5%)" stroke-width="1.5"></path><circle r="25" cx="550.47" cy="533.99" fill="url(#SvgjsRadialGradient1001)"></circle><circle r="25" cx="1097" cy="245.3" fill="url(#SvgjsRadialGradient1001)"></circle><circle r="25" cx="1125.7" cy="498.76" fill="url(#SvgjsRadialGradient1001)"></circle><circle r="25" cx="1253.11" cy="509.4" fill="url(#SvgjsRadialGradient1001)"></circle><circle r="25" cx="1417.15" cy="104.43" fill="url(#SvgjsRadialGradient1001)"></circle><circle r="25" cx="1560.56" cy="103.84" fill="url(#SvgjsRadialGradient1001)"></circle><circle r="25" cx="1544.62" cy="367.25" fill="url(#SvgjsRadialGradient1001)"></circle><circle r="5" cx="-90.86" cy="522.42" fill="#8b9ad9"></circle><circle r="5" cx="-62.75" cy="687.21" fill="#8b9ad9"></circle><circle r="5" cx="93.16" cy="546.65" fill="#8b9ad9"></circle><circle r="5" cx="55.3" cy="690.81" fill="#8b9ad9"></circle><circle r="5" cx="225.02" cy="532.81" fill="#8b9ad9"></circle><circle r="5" cx="228.42" cy="677.42" fill="#8b9ad9"></circle><circle r="5" cx="343.15" cy="545.88" fill="#8b9ad9"></circle><circle r="5" cx="411.98" cy="685.66" fill="#8b9ad9"></circle><circle r="5" cx="547.08" cy="669.56" fill="#8b9ad9"></circle><circle r="5" cx="640.85" cy="398.48" fill="#8b9ad9"></circle><circle r="5" cx="686.59" cy="502.04" fill="#8b9ad9"></circle><circle r="5" cx="711.47" cy="672.38" fill="#8b9ad9"></circle><circle r="5" cx="828.11" cy="344.63" fill="#8b9ad9"></circle><circle r="5" cx="829.19" cy="554.75" fill="#8b9ad9"></circle><circle r="5" cx="806.6" cy="709.17" fill="#8b9ad9"></circle><circle r="5" cx="977.23" cy="339.59" fill="#8b9ad9"></circle><circle r="5" cx="976.3" cy="506.4" fill="#8b9ad9"></circle><circle r="5" cx="970.84" cy="642.97" fill="#8b9ad9"></circle><circle r="5" cx="1143.52" cy="394.88" fill="#8b9ad9"></circle><circle r="5" cx="1131.87" cy="688.38" fill="#8b9ad9"></circle><circle r="5" cx="1247.52" cy="-88.66" fill="#8b9ad9"></circle><circle r="5" cx="1312.01" cy="49.73" fill="#8b9ad9"></circle><circle r="5" cx="1304.13" cy="382.33" fill="#8b9ad9"></circle><circle r="5" cx="1288.48" cy="677.66" fill="#8b9ad9"></circle><circle r="5" cx="1400.31" cy="-106.72" fill="#8b9ad9"></circle><circle r="5" cx="1424.11" cy="255.98" fill="#8b9ad9"></circle><circle r="5" cx="1422.57" cy="401.9" fill="#8b9ad9"></circle><circle r="5" cx="1561.91" cy="243.47" fill="#8b9ad9"></circle><circle r="5" cx="1596.06" cy="524.3" fill="#8b9ad9"></circle></g><defs><mask id="SvgjsMask1000"><rect width="1440" height="560" fill="#ffffff"></rect></mask><radialGradient id="SvgjsRadialGradient1001"><stop stop-color="#ffffff" offset="0.1"></stop><stop stop-color="#1735b3" offset="0.2"></stop><stop stop-color="rgba(23, 53, 179, 0)" offset="1"></stop></radialGradient></defs></svg>