<svg xmlns="http://www.w3.org/2000/svg" version="1.1" xmlns:xlink="http://www.w3.org/1999/xlink" xmlns:svgjs="http://svgjs.com/svgjs" width="1440" height="560" preserveAspectRatio="none" viewBox="0 0 1440 560"><g mask="url(&quot;#SvgjsMask2720&quot;)" fill="none"><rect width="1440" height="560" x="0" y="0" fill="url(#SvgjsLinearGradient2721)"></rect><path d="M-84.23 378.94L-84.23 378.94" stroke="rgba(0, 0, 0, 1)" stroke-width="1.5"></path><path d="M-84.23 378.94L82.24 399.72" stroke="rgba(0, 0, 0, 1)" stroke-width="1.5"></path><path d="M-84.23 378.94L71.99 539.48" stroke="rgba(0, 0, 0, 1)" stroke-width="1.5"></path><path d="M-84.23 378.94L-80.66 669.55" stroke="rgba(0, 0, 0, 1)" stroke-width="1.5"></path><path d="M-84.23 378.94L207.01 397.69" stroke="rgba(0, 0, 0, 1)" stroke-width="1.5"></path><path d="M-80.66 669.55L-80.66 669.55" stroke="rgba(0, 0, 0, 1)" stroke-width="1.5"></path><path d="M-80.66 669.55L68.8 643.57" stroke="rgba(0, 0, 0, 1)" stroke-width="1.5"></path><path d="M-80.66 669.55L71.99 539.48" stroke="rgba(0, 0, 0, 1)" stroke-width="1.5"></path><path d="M-80.66 669.55L82.24 399.72" stroke="rgba(0, 0, 0, 1)" stroke-width="1.5"></path><path d="M82.24 399.72L82.24 399.72" stroke="rgba(0, 0, 0, 1)" stroke-width="1.5"></path><path d="M82.24 399.72L207.01 397.69" stroke="rgba(0, 0, 0, 1)" stroke-width="1.5"></path><path d="M82.24 399.72L71.99 539.48" stroke="rgba(0, 0, 0, 1)" stroke-width="1.5"></path><path d="M82.24 399.72L206.06 497.2" stroke="rgba(0, 0, 0, 1)" stroke-width="1.5"></path><path d="M82.24 399.72L68.8 643.57" stroke="rgba(0, 0, 0, 1)" stroke-width="1.5"></path><path d="M71.99 539.48L71.99 539.48" stroke="rgba(0, 0, 0, 1)" stroke-width="1.5"></path><path d="M71.99 539.48L68.8 643.57" stroke="rgba(0, 0, 0, 1)" stroke-width="1.5"></path><path d="M71.99 539.48L206.06 497.2" stroke="rgba(0, 0, 0, 1)" stroke-width="1.5"></path><path d="M71.99 539.48L207.01 397.69" stroke="rgba(0, 0, 0, 1)" stroke-width="1.5"></path><path d="M68.8 643.57L68.8 643.57" stroke="rgba(0, 0, 0, 1)" stroke-width="1.5"></path><path d="M68.8 643.57L242.4 677.94" stroke="rgba(0, 0, 0, 1)" stroke-width="1.5"></path><path d="M207.01 397.69L207.01 397.69" stroke="rgba(0, 0, 0, 1)" stroke-width="1.5"></path><path d="M207.01 397.69L206.06 497.2" stroke="rgba(0, 0, 0, 1)" stroke-width="1.5"></path><path d="M206.06 497.2L206.06 497.2" stroke="rgba(0, 0, 0, 1)" stroke-width="1.5"></path><path d="M242.4 677.94L242.4 677.94" stroke="rgba(0, 0, 0, 1)" stroke-width="1.5"></path><path d="M242.4 677.94L341.7 643.09" stroke="rgba(0, 0, 0, 1)" stroke-width="1.5"></path><path d="M349.36 347.72L349.36 347.72" stroke="rgba(0, 0, 0, 1)" stroke-width="1.5"></path><path d="M349.36 347.72L207.01 397.69" stroke="rgba(0, 0, 0, 1)" stroke-width="1.5"></path><path d="M349.36 347.72L366.2 521.83" stroke="rgba(0, 0, 0, 1)" stroke-width="1.5"></path><path d="M349.36 347.72L206.06 497.2" stroke="rgba(0, 0, 0, 1)" stroke-width="1.5"></path><path d="M349.36 347.72L555.44 409.59" stroke="rgba(0, 0, 0, 1)" stroke-width="1.5"></path><path d="M349.36 347.72L553.12 487.67" stroke="rgba(0, 0, 0, 1)" stroke-width="1.5"></path><path d="M366.2 521.83L366.2 521.83" stroke="rgba(0, 0, 0, 1)" stroke-width="1.5"></path><path d="M366.2 521.83L341.7 643.09" stroke="rgba(0, 0, 0, 1)" stroke-width="1.5"></path><path d="M366.2 521.83L206.06 497.2" stroke="rgba(0, 0, 0, 1)" stroke-width="1.5"></path><path d="M341.7 643.09L341.7 643.09" stroke="rgba(0, 0, 0, 1)" stroke-width="1.5"></path><path d="M341.7 643.09L522.4 702.57" stroke="rgba(0, 0, 0, 1)" stroke-width="1.5"></path><path d="M341.7 643.09L206.06 497.2" stroke="rgba(0, 0, 0, 1)" stroke-width="1.5"></path><path d="M341.7 643.09L553.12 487.67" stroke="rgba(0, 0, 0, 1)" stroke-width="1.5"></path><path d="M555.44 409.59L555.44 409.59" stroke="rgba(0, 0, 0, 1)" stroke-width="1.5"></path><path d="M555.44 409.59L553.12 487.67" stroke="rgba(0, 0, 0, 1)" stroke-width="1.5"></path><path d="M555.44 409.59L650.14 355.41" stroke="rgba(0, 0, 0, 1)" stroke-width="1.5"></path><path d="M555.44 409.59L639.68 527.45" stroke="rgba(0, 0, 0, 1)" stroke-width="1.5"></path><path d="M553.12 487.67L553.12 487.67" stroke="rgba(0, 0, 0, 1)" stroke-width="1.5"></path><path d="M553.12 487.67L639.68 527.45" stroke="rgba(0, 0, 0, 1)" stroke-width="1.5"></path><path d="M522.4 702.57L522.4 702.57" stroke="rgba(0, 0, 0, 1)" stroke-width="1.5"></path><path d="M522.4 702.57L711.74 685.34" stroke="rgba(0, 0, 0, 1)" stroke-width="1.5"></path><path d="M522.4 702.57L639.68 527.45" stroke="rgba(0, 0, 0, 1)" stroke-width="1.5"></path><path d="M522.4 702.57L553.12 487.67" stroke="rgba(0, 0, 0, 1)" stroke-width="1.5"></path><path d="M522.4 702.57L366.2 521.83" stroke="rgba(0, 0, 0, 1)" stroke-width="1.5"></path><path d="M522.4 702.57L800.38 666.51" stroke="rgba(0, 0, 0, 1)" stroke-width="1.5"></path><path d="M700.72 243.57L700.72 243.57" stroke="rgba(0, 0, 0, 1)" stroke-width="1.5"></path><path d="M700.72 243.57L650.14 355.41" stroke="rgba(0, 0, 0, 1)" stroke-width="1.5"></path><path d="M700.72 243.57L836.77 261.9" stroke="rgba(0, 0, 0, 1)" stroke-width="1.5"></path><path d="M650.14 355.41L650.14 355.41" stroke="rgba(0, 0, 0, 1)" stroke-width="1.5"></path><path d="M639.68 527.45L639.68 527.45" stroke="rgba(0, 0, 0, 1)" stroke-width="1.5"></path><path d="M639.68 527.45L650.14 355.41" stroke="rgba(0, 0, 0, 1)" stroke-width="1.5"></path><path d="M639.68 527.45L711.74 685.34" stroke="rgba(0, 0, 0, 1)" stroke-width="1.5"></path><path d="M711.74 685.34L711.74 685.34" stroke="rgba(0, 0, 0, 1)" stroke-width="1.5"></path><path d="M711.74 685.34L800.38 666.51" stroke="rgba(0, 0, 0, 1)" stroke-width="1.5"></path><path d="M836.77 261.9L836.77 261.9" stroke="rgba(0, 0, 0, 1)" stroke-width="1.5"></path><path d="M836.77 261.9L958.17 212.38" stroke="rgba(0, 0, 0, 1)" stroke-width="1.5"></path><path d="M836.77 261.9L823.15 398.2" stroke="rgba(0, 0, 0, 1)" stroke-width="1.5"></path><path d="M823.15 398.2L823.15 398.2" stroke="rgba(0, 0, 0, 1)" stroke-width="1.5"></path><path d="M823.15 398.2L844.73 500.45" stroke="rgba(0, 0, 0, 1)" stroke-width="1.5"></path><path d="M823.15 398.2L945.21 398.42" stroke="rgba(0, 0, 0, 1)" stroke-width="1.5"></path><path d="M823.15 398.2L650.14 355.41" stroke="rgba(0, 0, 0, 1)" stroke-width="1.5"></path><path d="M823.15 398.2L700.72 243.57" stroke="rgba(0, 0, 0, 1)" stroke-width="1.5"></path><path d="M823.15 398.2L973.88 534.14" stroke="rgba(0, 0, 0, 1)" stroke-width="1.5"></path><path d="M844.73 500.45L844.73 500.45" stroke="rgba(0, 0, 0, 1)" stroke-width="1.5"></path><path d="M844.73 500.45L973.88 534.14" stroke="rgba(0, 0, 0, 1)" stroke-width="1.5"></path><path d="M800.38 666.51L800.38 666.51" stroke="rgba(0, 0, 0, 1)" stroke-width="1.5"></path><path d="M800.38 666.51L969.74 685.94" stroke="rgba(0, 0, 0, 1)" stroke-width="1.5"></path><path d="M800.38 666.51L844.73 500.45" stroke="rgba(0, 0, 0, 1)" stroke-width="1.5"></path><path d="M800.38 666.51L639.68 527.45" stroke="rgba(0, 0, 0, 1)" stroke-width="1.5"></path><path d="M964.87 -68.96L964.87 -68.96" stroke="rgba(0, 0, 0, 1)" stroke-width="1.5"></path><path d="M964.87 -68.96L1011.39 42.34" stroke="rgba(0, 0, 0, 1)" stroke-width="1.5"></path><path d="M964.87 -68.96L1096.91 -98.47" stroke="rgba(0, 0, 0, 1)" stroke-width="1.5"></path><path d="M964.87 -68.96L1110.14 42.86" stroke="rgba(0, 0, 0, 1)" stroke-width="1.5"></path><path d="M1011.39 42.34L1011.39 42.34" stroke="rgba(0, 0, 0, 1)" stroke-width="1.5"></path><path d="M1011.39 42.34L1110.14 42.86" stroke="rgba(0, 0, 0, 1)" stroke-width="1.5"></path><path d="M1011.39 42.34L1096.91 -98.47" stroke="rgba(0, 0, 0, 1)" stroke-width="1.5"></path><path d="M1011.39 42.34L958.17 212.38" stroke="rgba(0, 0, 0, 1)" stroke-width="1.5"></path><path d="M958.17 212.38L958.17 212.38" stroke="rgba(0, 0, 0, 1)" stroke-width="1.5"></path><path d="M958.17 212.38L1122.89 189" stroke="rgba(0, 0, 0, 1)" stroke-width="1.5"></path><path d="M958.17 212.38L945.21 398.42" stroke="rgba(0, 0, 0, 1)" stroke-width="1.5"></path><path d="M958.17 212.38L1110.14 42.86" stroke="rgba(0, 0, 0, 1)" stroke-width="1.5"></path><path d="M958.17 212.38L823.15 398.2" stroke="rgba(0, 0, 0, 1)" stroke-width="1.5"></path><path d="M945.21 398.42L945.21 398.42" stroke="rgba(0, 0, 0, 1)" stroke-width="1.5"></path><path d="M945.21 398.42L973.88 534.14" stroke="rgba(0, 0, 0, 1)" stroke-width="1.5"></path><path d="M945.21 398.42L844.73 500.45" stroke="rgba(0, 0, 0, 1)" stroke-width="1.5"></path><path d="M973.88 534.14L973.88 534.14" stroke="rgba(0, 0, 0, 1)" stroke-width="1.5"></path><path d="M973.88 534.14L1103.67 500.18" stroke="rgba(0, 0, 0, 1)" stroke-width="1.5"></path><path d="M973.88 534.14L969.74 685.94" stroke="rgba(0, 0, 0, 1)" stroke-width="1.5"></path><path d="M969.74 685.94L969.74 685.94" stroke="rgba(0, 0, 0, 1)" stroke-width="1.5"></path><path d="M969.74 685.94L1131.41 668.41" stroke="rgba(0, 0, 0, 1)" stroke-width="1.5"></path><path d="M969.74 685.94L844.73 500.45" stroke="rgba(0, 0, 0, 1)" stroke-width="1.5"></path><path d="M1096.91 -98.47L1096.91 -98.47" stroke="rgba(0, 0, 0, 1)" stroke-width="1.5"></path><path d="M1096.91 -98.47L1110.14 42.86" stroke="rgba(0, 0, 0, 1)" stroke-width="1.5"></path><path d="M1110.14 42.86L1110.14 42.86" stroke="rgba(0, 0, 0, 1)" stroke-width="1.5"></path><path d="M1110.14 42.86L1122.89 189" stroke="rgba(0, 0, 0, 1)" stroke-width="1.5"></path><path d="M1122.89 189L1122.89 189" stroke="rgba(0, 0, 0, 1)" stroke-width="1.5"></path><path d="M1122.89 189L1138.84 360.89" stroke="rgba(0, 0, 0, 1)" stroke-width="1.5"></path><path d="M1138.84 360.89L1138.84 360.89" stroke="rgba(0, 0, 0, 1)" stroke-width="1.5"></path><path d="M1138.84 360.89L1262.99 346.45" stroke="rgba(0, 0, 0, 1)" stroke-width="1.5"></path><path d="M1138.84 360.89L1103.67 500.18" stroke="rgba(0, 0, 0, 1)" stroke-width="1.5"></path><path d="M1103.67 500.18L1103.67 500.18" stroke="rgba(0, 0, 0, 1)" stroke-width="1.5"></path><path d="M1131.41 668.41L1131.41 668.41" stroke="rgba(0, 0, 0, 1)" stroke-width="1.5"></path><path d="M1131.41 668.41L1103.67 500.18" stroke="rgba(0, 0, 0, 1)" stroke-width="1.5"></path><path d="M1131.41 668.41L1250.94 523.02" stroke="rgba(0, 0, 0, 1)" stroke-width="1.5"></path><path d="M1131.41 668.41L973.88 534.14" stroke="rgba(0, 0, 0, 1)" stroke-width="1.5"></path><path d="M1131.41 668.41L1138.84 360.89" stroke="rgba(0, 0, 0, 1)" stroke-width="1.5"></path><path d="M1131.41 668.41L1420.45 516.99" stroke="rgba(0, 0, 0, 1)" stroke-width="1.5"></path><path d="M1308.83 -39.38L1308.83 -39.38" stroke="rgba(0, 0, 0, 1)" stroke-width="1.5"></path><path d="M1308.83 -39.38L1289 40.57" stroke="rgba(0, 0, 0, 1)" stroke-width="1.5"></path><path d="M1308.83 -39.38L1457.6 -49.61" stroke="rgba(0, 0, 0, 1)" stroke-width="1.5"></path><path d="M1308.83 -39.38L1461.63 106.72" stroke="rgba(0, 0, 0, 1)" stroke-width="1.5"></path><path d="M1308.83 -39.38L1110.14 42.86" stroke="rgba(0, 0, 0, 1)" stroke-width="1.5"></path><path d="M1289 40.57L1289 40.57" stroke="rgba(0, 0, 0, 1)" stroke-width="1.5"></path><path d="M1289 40.57L1310.33 211.83" stroke="rgba(0, 0, 0, 1)" stroke-width="1.5"></path><path d="M1289 40.57L1110.14 42.86" stroke="rgba(0, 0, 0, 1)" stroke-width="1.5"></path><path d="M1289 40.57L1461.63 106.72" stroke="rgba(0, 0, 0, 1)" stroke-width="1.5"></path><path d="M1289 40.57L1457.6 -49.61" stroke="rgba(0, 0, 0, 1)" stroke-width="1.5"></path><path d="M1289 40.57L1122.89 189" stroke="rgba(0, 0, 0, 1)" stroke-width="1.5"></path><path d="M1310.33 211.83L1310.33 211.83" stroke="rgba(0, 0, 0, 1)" stroke-width="1.5"></path><path d="M1310.33 211.83L1418.32 233.85" stroke="rgba(0, 0, 0, 1)" stroke-width="1.5"></path><path d="M1310.33 211.83L1262.99 346.45" stroke="rgba(0, 0, 0, 1)" stroke-width="1.5"></path><path d="M1310.33 211.83L1461.63 106.72" stroke="rgba(0, 0, 0, 1)" stroke-width="1.5"></path><path d="M1310.33 211.83L1122.89 189" stroke="rgba(0, 0, 0, 1)" stroke-width="1.5"></path><path d="M1310.33 211.83L1138.84 360.89" stroke="rgba(0, 0, 0, 1)" stroke-width="1.5"></path><path d="M1262.99 346.45L1262.99 346.45" stroke="rgba(0, 0, 0, 1)" stroke-width="1.5"></path><path d="M1262.99 346.45L1250.94 523.02" stroke="rgba(0, 0, 0, 1)" stroke-width="1.5"></path><path d="M1250.94 523.02L1250.94 523.02" stroke="rgba(0, 0, 0, 1)" stroke-width="1.5"></path><path d="M1250.94 523.02L1103.67 500.18" stroke="rgba(0, 0, 0, 1)" stroke-width="1.5"></path><path d="M1250.94 523.02L1420.45 516.99" stroke="rgba(0, 0, 0, 1)" stroke-width="1.5"></path><path d="M1457.6 -49.61L1457.6 -49.61" stroke="rgba(0, 0, 0, 1)" stroke-width="1.5"></path><path d="M1457.6 -49.61L1572.58 -74.42" stroke="rgba(0, 0, 0, 1)" stroke-width="1.5"></path><path d="M1457.6 -49.61L1461.63 106.72" stroke="rgba(0, 0, 0, 1)" stroke-width="1.5"></path><path d="M1461.63 106.72L1461.63 106.72" stroke="rgba(0, 0, 0, 1)" stroke-width="1.5"></path><path d="M1461.63 106.72L1553.08 198.2" stroke="rgba(0, 0, 0, 1)" stroke-width="1.5"></path><path d="M1461.63 106.72L1418.32 233.85" stroke="rgba(0, 0, 0, 1)" stroke-width="1.5"></path><path d="M1418.32 233.85L1418.32 233.85" stroke="rgba(0, 0, 0, 1)" stroke-width="1.5"></path><path d="M1418.32 233.85L1553.08 198.2" stroke="rgba(0, 0, 0, 1)" stroke-width="1.5"></path><path d="M1420.45 516.99L1420.45 516.99" stroke="rgba(0, 0, 0, 1)" stroke-width="1.5"></path><path d="M1420.45 516.99L1585.38 542.17" stroke="rgba(0, 0, 0, 1)" stroke-width="1.5"></path><path d="M1420.45 516.99L1459.31 695.05" stroke="rgba(0, 0, 0, 1)" stroke-width="1.5"></path><path d="M1420.45 516.99L1554.18 375.09" stroke="rgba(0, 0, 0, 1)" stroke-width="1.5"></path><path d="M1420.45 516.99L1262.99 346.45" stroke="rgba(0, 0, 0, 1)" stroke-width="1.5"></path><path d="M1459.31 695.05L1459.31 695.05" stroke="rgba(0, 0, 0, 1)" stroke-width="1.5"></path><path d="M1459.31 695.05L1606.98 659.54" stroke="rgba(0, 0, 0, 1)" stroke-width="1.5"></path><path d="M1459.31 695.05L1585.38 542.17" stroke="rgba(0, 0, 0, 1)" stroke-width="1.5"></path><path d="M1459.31 695.05L1250.94 523.02" stroke="rgba(0, 0, 0, 1)" stroke-width="1.5"></path><path d="M1572.58 -74.42L1572.58 -74.42" stroke="rgba(0, 0, 0, 1)" stroke-width="1.5"></path><path d="M1572.58 -74.42L1461.63 106.72" stroke="rgba(0, 0, 0, 1)" stroke-width="1.5"></path><path d="M1572.58 -74.42L1308.83 -39.38" stroke="rgba(0, 0, 0, 1)" stroke-width="1.5"></path><path d="M1572.58 -74.42L1553.08 198.2" stroke="rgba(0, 0, 0, 1)" stroke-width="1.5"></path><path d="M1572.58 -74.42L1289 40.57" stroke="rgba(0, 0, 0, 1)" stroke-width="1.5"></path><path d="M1572.58 -74.42L1418.32 233.85" stroke="rgba(0, 0, 0, 1)" stroke-width="1.5"></path><path d="M1553.08 198.2L1553.08 198.2" stroke="rgba(0, 0, 0, 1)" stroke-width="1.5"></path><path d="M1553.08 198.2L1554.18 375.09" stroke="rgba(0, 0, 0, 1)" stroke-width="1.5"></path><path d="M1553.08 198.2L1310.33 211.83" stroke="rgba(0, 0, 0, 1)" stroke-width="1.5"></path><path d="M1553.08 198.2L1457.6 -49.61" stroke="rgba(0, 0, 0, 1)" stroke-width="1.5"></path><path d="M1554.18 375.09L1554.18 375.09" stroke="rgba(0, 0, 0, 1)" stroke-width="1.5"></path><path d="M1554.18 375.09L1585.38 542.17" stroke="rgba(0, 0, 0, 1)" stroke-width="1.5"></path><path d="M1585.38 542.17L1585.38 542.17" stroke="rgba(0, 0, 0, 1)" stroke-width="1.5"></path><path d="M1585.38 542.17L1606.98 659.54" stroke="rgba(0, 0, 0, 1)" stroke-width="1.5"></path><path d="M1606.98 659.54L1606.98 659.54" stroke="rgba(0, 0, 0, 1)" stroke-width="1.5"></path><circle r="5" cx="-84.23" cy="378.94" fill="rgba(0, 0, 0, 1)"></circle><circle r="5" cx="-80.66" cy="669.55" fill="rgba(0, 0, 0, 1)"></circle><circle r="5" cx="82.24" cy="399.72" fill="rgba(0, 0, 0, 1)"></circle><circle r="5" cx="71.99" cy="539.48" fill="rgba(0, 0, 0, 1)"></circle><circle r="5" cx="68.8" cy="643.57" fill="rgba(0, 0, 0, 1)"></circle><circle r="5" cx="207.01" cy="397.69" fill="rgba(0, 0, 0, 1)"></circle><circle r="5" cx="206.06" cy="497.2" fill="rgba(0, 0, 0, 1)"></circle><circle r="5" cx="242.4" cy="677.94" fill="rgba(0, 0, 0, 1)"></circle><circle r="5" cx="349.36" cy="347.72" fill="rgba(0, 0, 0, 1)"></circle><circle r="5" cx="366.2" cy="521.83" fill="rgba(0, 0, 0, 1)"></circle><circle r="5" cx="341.7" cy="643.09" fill="rgba(0, 0, 0, 1)"></circle><circle r="5" cx="555.44" cy="409.59" fill="rgba(0, 0, 0, 1)"></circle><circle r="5" cx="553.12" cy="487.67" fill="rgba(0, 0, 0, 1)"></circle><circle r="5" cx="522.4" cy="702.57" fill="rgba(0, 0, 0, 1)"></circle><circle r="5" cx="700.72" cy="243.57" fill="rgba(0, 0, 0, 1)"></circle><circle r="5" cx="650.14" cy="355.41" fill="rgba(0, 0, 0, 1)"></circle><circle r="5" cx="639.68" cy="527.45" fill="rgba(0, 0, 0, 1)"></circle><circle r="5" cx="711.74" cy="685.34" fill="rgba(0, 0, 0, 1)"></circle><circle r="5" cx="836.77" cy="261.9" fill="rgba(0, 0, 0, 1)"></circle><circle r="5" cx="823.15" cy="398.2" fill="rgba(0, 0, 0, 1)"></circle><circle r="5" cx="844.73" cy="500.45" fill="rgba(0, 0, 0, 1)"></circle><circle r="5" cx="800.38" cy="666.51" fill="rgba(0, 0, 0, 1)"></circle><circle r="5" cx="964.87" cy="-68.96" fill="rgba(0, 0, 0, 1)"></circle><circle r="5" cx="1011.39" cy="42.34" fill="rgba(0, 0, 0, 1)"></circle><circle r="5" cx="958.17" cy="212.38" fill="rgba(0, 0, 0, 1)"></circle><circle r="5" cx="945.21" cy="398.42" fill="rgba(0, 0, 0, 1)"></circle><circle r="5" cx="973.88" cy="534.14" fill="rgba(0, 0, 0, 1)"></circle><circle r="5" cx="969.74" cy="685.94" fill="rgba(0, 0, 0, 1)"></circle><circle r="5" cx="1096.91" cy="-98.47" fill="rgba(0, 0, 0, 1)"></circle><circle r="5" cx="1110.14" cy="42.86" fill="rgba(0, 0, 0, 1)"></circle><circle r="5" cx="1122.89" cy="189" fill="rgba(0, 0, 0, 1)"></circle><circle r="5" cx="1138.84" cy="360.89" fill="rgba(0, 0, 0, 1)"></circle><circle r="5" cx="1103.67" cy="500.18" fill="rgba(0, 0, 0, 1)"></circle><circle r="5" cx="1131.41" cy="668.41" fill="rgba(0, 0, 0, 1)"></circle><circle r="5" cx="1308.83" cy="-39.38" fill="rgba(0, 0, 0, 1)"></circle><circle r="5" cx="1289" cy="40.57" fill="rgba(0, 0, 0, 1)"></circle><circle r="5" cx="1310.33" cy="211.83" fill="rgba(0, 0, 0, 1)"></circle><circle r="5" cx="1262.99" cy="346.45" fill="rgba(0, 0, 0, 1)"></circle><circle r="5" cx="1250.94" cy="523.02" fill="rgba(0, 0, 0, 1)"></circle><circle r="5" cx="1457.6" cy="-49.61" fill="rgba(0, 0, 0, 1)"></circle><circle r="5" cx="1461.63" cy="106.72" fill="rgba(0, 0, 0, 1)"></circle><circle r="5" cx="1418.32" cy="233.85" fill="rgba(0, 0, 0, 1)"></circle><circle r="5" cx="1420.45" cy="516.99" fill="rgba(0, 0, 0, 1)"></circle><circle r="5" cx="1459.31" cy="695.05" fill="rgba(0, 0, 0, 1)"></circle><circle r="5" cx="1572.58" cy="-74.42" fill="rgba(0, 0, 0, 1)"></circle><circle r="5" cx="1553.08" cy="198.2" fill="rgba(0, 0, 0, 1)"></circle><circle r="5" cx="1554.18" cy="375.09" fill="rgba(0, 0, 0, 1)"></circle><circle r="5" cx="1585.38" cy="542.17" fill="rgba(0, 0, 0, 1)"></circle><circle r="5" cx="1606.98" cy="659.54" fill="rgba(0, 0, 0, 1)"></circle><path d="M83.14 648.03L83.14 648.03" stroke="hsl(0, 0%, 0%)" stroke-width="1.5"></path><path d="M83.14 648.03L237.12 699.23" stroke="hsl(0, 0%, 0%)" stroke-width="1.5"></path><path d="M83.14 648.03L-101.5 679.9" stroke="hsl(0, 0%, 0%)" stroke-width="1.5"></path><path d="M83.14 648.03L259.43 561.62" stroke="hsl(0, 0%, 0%)" stroke-width="1.5"></path><path d="M83.14 648.03L-92.69 490.61" stroke="hsl(0, 0%, 0%)" stroke-width="1.5"></path><path d="M83.14 648.03L370.81 655.04" stroke="hsl(0, 0%, 0%)" stroke-width="1.5"></path><path d="M83.14 648.03L407.49 552.16" stroke="hsl(0, 0%, 0%)" stroke-width="1.5"></path><path d="M259.43 561.62L259.43 561.62" stroke="hsl(0, 0%, 0%)" stroke-width="1.5"></path><path d="M259.43 561.62L237.12 699.23" stroke="hsl(0, 0%, 0%)" stroke-width="1.5"></path><path d="M259.43 561.62L370.81 655.04" stroke="hsl(0, 0%, 0%)" stroke-width="1.5"></path><path d="M259.43 561.62L407.49 552.16" stroke="hsl(0, 0%, 0%)" stroke-width="1.5"></path><path d="M259.43 561.62L510.24 496.65" stroke="hsl(0, 0%, 0%)" stroke-width="1.5"></path><path d="M668.55 672.13L668.55 672.13" stroke="hsl(0, 0%, 0%)" stroke-width="1.5"></path><path d="M668.55 672.13L677.79 545.45" stroke="hsl(0, 0%, 0%)" stroke-width="1.5"></path><path d="M668.55 672.13L796.06 701.89" stroke="hsl(0, 0%, 0%)" stroke-width="1.5"></path><path d="M668.55 672.13L529.33 679.13" stroke="hsl(0, 0%, 0%)" stroke-width="1.5"></path><path d="M668.55 672.13L510.24 496.65" stroke="hsl(0, 0%, 0%)" stroke-width="1.5"></path><path d="M668.55 672.13L846.35 503.3" stroke="hsl(0, 0%, 0%)" stroke-width="1.5"></path><path d="M668.55 672.13L703.7 394.04" stroke="hsl(0, 0%, 0%)" stroke-width="1.5"></path><path d="M993.55 704.35L993.55 704.35" stroke="hsl(0, 0%, 0%)" stroke-width="1.5"></path><path d="M993.55 704.35L939.33 560.87" stroke="hsl(0, 0%, 0%)" stroke-width="1.5"></path><path d="M993.55 704.35L796.06 701.89" stroke="hsl(0, 0%, 0%)" stroke-width="1.5"></path><path d="M1142.69 501.68L1142.69 501.68" stroke="hsl(0, 0%, 0%)" stroke-width="1.5"></path><path d="M1142.69 501.68L1136.02 409.99" stroke="hsl(0, 0%, 0%)" stroke-width="1.5"></path><path d="M1142.69 501.68L1289.96 524.78" stroke="hsl(0, 0%, 0%)" stroke-width="1.5"></path><path d="M1142.69 501.68L1278.69 396.39" stroke="hsl(0, 0%, 0%)" stroke-width="1.5"></path><path d="M1259.95 680.89L1259.95 680.89" stroke="hsl(0, 0%, 0%)" stroke-width="1.5"></path><path d="M1259.95 680.89L1289.96 524.78" stroke="hsl(0, 0%, 0%)" stroke-width="1.5"></path><path d="M1259.95 680.89L1420.36 683.4" stroke="hsl(0, 0%, 0%)" stroke-width="1.5"></path><path d="M1259.95 680.89L1142.69 501.68" stroke="hsl(0, 0%, 0%)" stroke-width="1.5"></path><path d="M1259.95 680.89L1430.48 547.44" stroke="hsl(0, 0%, 0%)" stroke-width="1.5"></path><path d="M1259.95 680.89L993.55 704.35" stroke="hsl(0, 0%, 0%)" stroke-width="1.5"></path><path d="M1447.74 193.34L1447.74 193.34" stroke="hsl(0, 0%, 0%)" stroke-width="1.5"></path><path d="M1447.74 193.34L1424.33 56.12" stroke="hsl(0, 0%, 0%)" stroke-width="1.5"></path><path d="M1447.74 193.34L1416.13 340.93" stroke="hsl(0, 0%, 0%)" stroke-width="1.5"></path><path d="M1447.74 193.34L1287.15 256.44" stroke="hsl(0, 0%, 0%)" stroke-width="1.5"></path><path d="M1447.74 193.34L1585.38 77.35" stroke="hsl(0, 0%, 0%)" stroke-width="1.5"></path><path d="M1447.74 193.34L1247.51 75.34" stroke="hsl(0, 0%, 0%)" stroke-width="1.5"></path><path d="M1447.74 193.34L1592.94 383.98" stroke="hsl(0, 0%, 0%)" stroke-width="1.5"></path><path d="M1430.48 547.44L1430.48 547.44" stroke="hsl(0, 0%, 0%)" stroke-width="1.5"></path><path d="M1430.48 547.44L1420.36 683.4" stroke="hsl(0, 0%, 0%)" stroke-width="1.5"></path><path d="M1430.48 547.44L1289.96 524.78" stroke="hsl(0, 0%, 0%)" stroke-width="1.5"></path><path d="M1430.48 547.44L1606.44 547.7" stroke="hsl(0, 0%, 0%)" stroke-width="1.5"></path><path d="M1430.48 547.44L1570.6 673.14" stroke="hsl(0, 0%, 0%)" stroke-width="1.5"></path><path d="M1430.48 547.44L1416.13 340.93" stroke="hsl(0, 0%, 0%)" stroke-width="1.5"></path><path d="M1606.44 547.7L1606.44 547.7" stroke="hsl(0, 0%, 0%)" stroke-width="1.5"></path><path d="M1606.44 547.7L1570.6 673.14" stroke="hsl(0, 0%, 0%)" stroke-width="1.5"></path><path d="M1606.44 547.7L1592.94 383.98" stroke="hsl(0, 0%, 0%)" stroke-width="1.5"></path><path d="M1606.44 547.7L1420.36 683.4" stroke="hsl(0, 0%, 0%)" stroke-width="1.5"></path><path d="M1606.44 547.7L1416.13 340.93" stroke="hsl(0, 0%, 0%)" stroke-width="1.5"></path><path d="M1570.6 673.14L1570.6 673.14" stroke="hsl(0, 0%, 0%)" stroke-width="1.5"></path><path d="M1570.6 673.14L1420.36 683.4" stroke="hsl(0, 0%, 0%)" stroke-width="1.5"></path><path d="M1570.6 673.14L1592.94 383.98" stroke="hsl(0, 0%, 0%)" stroke-width="1.5"></path><path d="M1570.6 673.14L1259.95 680.89" stroke="hsl(0, 0%, 0%)" stroke-width="1.5"></path><path d="M-92.69 490.61L-92.69 490.61" stroke="hsl(0, 0%, 0%)" stroke-width="1.5"></path><path d="M-92.69 490.61L-101.5 679.9" stroke="hsl(0, 0%, 0%)" stroke-width="1.5"></path><path d="M-101.5 679.9L-101.5 679.9" stroke="hsl(0, 0%, 0%)" stroke-width="1.5"></path><path d="M-101.5 679.9L237.12 699.23" stroke="hsl(0, 0%, 0%)" stroke-width="1.5"></path><path d="M237.12 699.23L237.12 699.23" stroke="hsl(0, 0%, 0%)" stroke-width="1.5"></path><path d="M237.12 699.23L370.81 655.04" stroke="hsl(0, 0%, 0%)" stroke-width="1.5"></path><path d="M407.49 552.16L407.49 552.16" stroke="hsl(0, 0%, 0%)" stroke-width="1.5"></path><path d="M407.49 552.16L370.81 655.04" stroke="hsl(0, 0%, 0%)" stroke-width="1.5"></path><path d="M407.49 552.16L510.24 496.65" stroke="hsl(0, 0%, 0%)" stroke-width="1.5"></path><path d="M407.49 552.16L529.33 679.13" stroke="hsl(0, 0%, 0%)" stroke-width="1.5"></path><path d="M370.81 655.04L370.81 655.04" stroke="hsl(0, 0%, 0%)" stroke-width="1.5"></path><path d="M370.81 655.04L529.33 679.13" stroke="hsl(0, 0%, 0%)" stroke-width="1.5"></path><path d="M510.24 496.65L510.24 496.65" stroke="hsl(0, 0%, 0%)" stroke-width="1.5"></path><path d="M510.24 496.65L677.79 545.45" stroke="hsl(0, 0%, 0%)" stroke-width="1.5"></path><path d="M510.24 496.65L529.33 679.13" stroke="hsl(0, 0%, 0%)" stroke-width="1.5"></path><path d="M510.24 496.65L370.81 655.04" stroke="hsl(0, 0%, 0%)" stroke-width="1.5"></path><path d="M510.24 496.65L703.7 394.04" stroke="hsl(0, 0%, 0%)" stroke-width="1.5"></path><path d="M529.33 679.13L529.33 679.13" stroke="hsl(0, 0%, 0%)" stroke-width="1.5"></path><path d="M529.33 679.13L677.79 545.45" stroke="hsl(0, 0%, 0%)" stroke-width="1.5"></path><path d="M703.7 394.04L703.7 394.04" stroke="hsl(0, 0%, 0%)" stroke-width="1.5"></path><path d="M703.7 394.04L813.44 346.99" stroke="hsl(0, 0%, 0%)" stroke-width="1.5"></path><path d="M703.7 394.04L677.79 545.45" stroke="hsl(0, 0%, 0%)" stroke-width="1.5"></path><path d="M703.7 394.04L846.35 503.3" stroke="hsl(0, 0%, 0%)" stroke-width="1.5"></path><path d="M677.79 545.45L677.79 545.45" stroke="hsl(0, 0%, 0%)" stroke-width="1.5"></path><path d="M677.79 545.45L846.35 503.3" stroke="hsl(0, 0%, 0%)" stroke-width="1.5"></path><path d="M813.44 346.99L813.44 346.99" stroke="hsl(0, 0%, 0%)" stroke-width="1.5"></path><path d="M813.44 346.99L970.44 346.35" stroke="hsl(0, 0%, 0%)" stroke-width="1.5"></path><path d="M813.44 346.99L846.35 503.3" stroke="hsl(0, 0%, 0%)" stroke-width="1.5"></path><path d="M813.44 346.99L677.79 545.45" stroke="hsl(0, 0%, 0%)" stroke-width="1.5"></path><path d="M846.35 503.3L846.35 503.3" stroke="hsl(0, 0%, 0%)" stroke-width="1.5"></path><path d="M846.35 503.3L939.33 560.87" stroke="hsl(0, 0%, 0%)" stroke-width="1.5"></path><path d="M846.35 503.3L970.44 346.35" stroke="hsl(0, 0%, 0%)" stroke-width="1.5"></path><path d="M796.06 701.89L796.06 701.89" stroke="hsl(0, 0%, 0%)" stroke-width="1.5"></path><path d="M796.06 701.89L677.79 545.45" stroke="hsl(0, 0%, 0%)" stroke-width="1.5"></path><path d="M796.06 701.89L939.33 560.87" stroke="hsl(0, 0%, 0%)" stroke-width="1.5"></path><path d="M796.06 701.89L846.35 503.3" stroke="hsl(0, 0%, 0%)" stroke-width="1.5"></path><path d="M796.06 701.89L529.33 679.13" stroke="hsl(0, 0%, 0%)" stroke-width="1.5"></path><path d="M970.44 346.35L970.44 346.35" stroke="hsl(0, 0%, 0%)" stroke-width="1.5"></path><path d="M939.33 560.87L939.33 560.87" stroke="hsl(0, 0%, 0%)" stroke-width="1.5"></path><path d="M939.33 560.87L1142.69 501.68" stroke="hsl(0, 0%, 0%)" stroke-width="1.5"></path><path d="M939.33 560.87L970.44 346.35" stroke="hsl(0, 0%, 0%)" stroke-width="1.5"></path><path d="M1155.01 -56.97L1155.01 -56.97" stroke="hsl(0, 0%, 0%)" stroke-width="1.5"></path><path d="M1155.01 -56.97L1256.46 -85.47" stroke="hsl(0, 0%, 0%)" stroke-width="1.5"></path><path d="M1155.01 -56.97L1247.51 75.34" stroke="hsl(0, 0%, 0%)" stroke-width="1.5"></path><path d="M1155.01 -56.97L1433.21 -90.1" stroke="hsl(0, 0%, 0%)" stroke-width="1.5"></path><path d="M1155.01 -56.97L1424.33 56.12" stroke="hsl(0, 0%, 0%)" stroke-width="1.5"></path><path d="M1155.01 -56.97L1108.89 231.89" stroke="hsl(0, 0%, 0%)" stroke-width="1.5"></path><path d="M1108.89 231.89L1108.89 231.89" stroke="hsl(0, 0%, 0%)" stroke-width="1.5"></path><path d="M1108.89 231.89L970.44 346.35" stroke="hsl(0, 0%, 0%)" stroke-width="1.5"></path><path d="M1108.89 231.89L1287.15 256.44" stroke="hsl(0, 0%, 0%)" stroke-width="1.5"></path><path d="M1108.89 231.89L1136.02 409.99" stroke="hsl(0, 0%, 0%)" stroke-width="1.5"></path><path d="M1108.89 231.89L1247.51 75.34" stroke="hsl(0, 0%, 0%)" stroke-width="1.5"></path><path d="M1108.89 231.89L1278.69 396.39" stroke="hsl(0, 0%, 0%)" stroke-width="1.5"></path><path d="M1136.02 409.99L1136.02 409.99" stroke="hsl(0, 0%, 0%)" stroke-width="1.5"></path><path d="M1136.02 409.99L1278.69 396.39" stroke="hsl(0, 0%, 0%)" stroke-width="1.5"></path><path d="M1136.02 409.99L970.44 346.35" stroke="hsl(0, 0%, 0%)" stroke-width="1.5"></path><path d="M1256.46 -85.47L1256.46 -85.47" stroke="hsl(0, 0%, 0%)" stroke-width="1.5"></path><path d="M1256.46 -85.47L1247.51 75.34" stroke="hsl(0, 0%, 0%)" stroke-width="1.5"></path><path d="M1256.46 -85.47L1433.21 -90.1" stroke="hsl(0, 0%, 0%)" stroke-width="1.5"></path><path d="M1256.46 -85.47L1424.33 56.12" stroke="hsl(0, 0%, 0%)" stroke-width="1.5"></path><path d="M1256.46 -85.47L1574.65 -96.68" stroke="hsl(0, 0%, 0%)" stroke-width="1.5"></path><path d="M1256.46 -85.47L1447.74 193.34" stroke="hsl(0, 0%, 0%)" stroke-width="1.5"></path><path d="M1247.51 75.34L1247.51 75.34" stroke="hsl(0, 0%, 0%)" stroke-width="1.5"></path><path d="M1247.51 75.34L1424.33 56.12" stroke="hsl(0, 0%, 0%)" stroke-width="1.5"></path><path d="M1287.15 256.44L1287.15 256.44" stroke="hsl(0, 0%, 0%)" stroke-width="1.5"></path><path d="M1287.15 256.44L1278.69 396.39" stroke="hsl(0, 0%, 0%)" stroke-width="1.5"></path><path d="M1287.15 256.44L1416.13 340.93" stroke="hsl(0, 0%, 0%)" stroke-width="1.5"></path><path d="M1278.69 396.39L1278.69 396.39" stroke="hsl(0, 0%, 0%)" stroke-width="1.5"></path><path d="M1278.69 396.39L1289.96 524.78" stroke="hsl(0, 0%, 0%)" stroke-width="1.5"></path><path d="M1289.96 524.78L1289.96 524.78" stroke="hsl(0, 0%, 0%)" stroke-width="1.5"></path><path d="M1289.96 524.78L1136.02 409.99" stroke="hsl(0, 0%, 0%)" stroke-width="1.5"></path><path d="M1433.21 -90.1L1433.21 -90.1" stroke="hsl(0, 0%, 0%)" stroke-width="1.5"></path><path d="M1433.21 -90.1L1574.65 -96.68" stroke="hsl(0, 0%, 0%)" stroke-width="1.5"></path><path d="M1433.21 -90.1L1424.33 56.12" stroke="hsl(0, 0%, 0%)" stroke-width="1.5"></path><path d="M1433.21 -90.1L1585.38 77.35" stroke="hsl(0, 0%, 0%)" stroke-width="1.5"></path><path d="M1433.21 -90.1L1247.51 75.34" stroke="hsl(0, 0%, 0%)" stroke-width="1.5"></path><path d="M1424.33 56.12L1424.33 56.12" stroke="hsl(0, 0%, 0%)" stroke-width="1.5"></path><path d="M1416.13 340.93L1416.13 340.93" stroke="hsl(0, 0%, 0%)" stroke-width="1.5"></path><path d="M1416.13 340.93L1278.69 396.39" stroke="hsl(0, 0%, 0%)" stroke-width="1.5"></path><path d="M1416.13 340.93L1592.94 383.98" stroke="hsl(0, 0%, 0%)" stroke-width="1.5"></path><path d="M1420.36 683.4L1420.36 683.4" stroke="hsl(0, 0%, 0%)" stroke-width="1.5"></path><path d="M1420.36 683.4L1289.96 524.78" stroke="hsl(0, 0%, 0%)" stroke-width="1.5"></path><path d="M1574.65 -96.68L1574.65 -96.68" stroke="hsl(0, 0%, 0%)" stroke-width="1.5"></path><path d="M1574.65 -96.68L1585.38 77.35" stroke="hsl(0, 0%, 0%)" stroke-width="1.5"></path><path d="M1574.65 -96.68L1424.33 56.12" stroke="hsl(0, 0%, 0%)" stroke-width="1.5"></path><path d="M1574.65 -96.68L1447.74 193.34" stroke="hsl(0, 0%, 0%)" stroke-width="1.5"></path><path d="M1585.38 77.35L1585.38 77.35" stroke="hsl(0, 0%, 0%)" stroke-width="1.5"></path><path d="M1585.38 77.35L1424.33 56.12" stroke="hsl(0, 0%, 0%)" stroke-width="1.5"></path><path d="M1592.94 383.98L1592.94 383.98" stroke="hsl(0, 0%, 0%)" stroke-width="1.5"></path><path d="M1592.94 383.98L1430.48 547.44" stroke="hsl(0, 0%, 0%)" stroke-width="1.5"></path><circle r="25" cx="83.14" cy="648.03" fill="url(#SvgjsRadialGradient2722)"></circle><circle r="25" cx="259.43" cy="561.62" fill="url(#SvgjsRadialGradient2722)"></circle><circle r="25" cx="668.55" cy="672.13" fill="url(#SvgjsRadialGradient2722)"></circle><circle r="25" cx="993.55" cy="704.35" fill="url(#SvgjsRadialGradient2722)"></circle><circle r="25" cx="1142.69" cy="501.68" fill="url(#SvgjsRadialGradient2722)"></circle><circle r="25" cx="1259.95" cy="680.89" fill="url(#SvgjsRadialGradient2722)"></circle><circle r="25" cx="1447.74" cy="193.34" fill="url(#SvgjsRadialGradient2722)"></circle><circle r="25" cx="1430.48" cy="547.44" fill="url(#SvgjsRadialGradient2722)"></circle><circle r="25" cx="1606.44" cy="547.7" fill="url(#SvgjsRadialGradient2722)"></circle><circle r="25" cx="1570.6" cy="673.14" fill="url(#SvgjsRadialGradient2722)"></circle><circle r="5" cx="-92.69" cy="490.61" fill="#808080"></circle><circle r="5" cx="-101.5" cy="679.9" fill="#808080"></circle><circle r="5" cx="237.12" cy="699.23" fill="#808080"></circle><circle r="5" cx="407.49" cy="552.16" fill="#808080"></circle><circle r="5" cx="370.81" cy="655.04" fill="#808080"></circle><circle r="5" cx="510.24" cy="496.65" fill="#808080"></circle><circle r="5" cx="529.33" cy="679.13" fill="#808080"></circle><circle r="5" cx="703.7" cy="394.04" fill="#808080"></circle><circle r="5" cx="677.79" cy="545.45" fill="#808080"></circle><circle r="5" cx="813.44" cy="346.99" fill="#808080"></circle><circle r="5" cx="846.35" cy="503.3" fill="#808080"></circle><circle r="5" cx="796.06" cy="701.89" fill="#808080"></circle><circle r="5" cx="970.44" cy="346.35" fill="#808080"></circle><circle r="5" cx="939.33" cy="560.87" fill="#808080"></circle><circle r="5" cx="1155.01" cy="-56.97" fill="#808080"></circle><circle r="5" cx="1108.89" cy="231.89" fill="#808080"></circle><circle r="5" cx="1136.02" cy="409.99" fill="#808080"></circle><circle r="5" cx="1256.46" cy="-85.47" fill="#808080"></circle><circle r="5" cx="1247.51" cy="75.34" fill="#808080"></circle><circle r="5" cx="1287.15" cy="256.44" fill="#808080"></circle><circle r="5" cx="1278.69" cy="396.39" fill="#808080"></circle><circle r="5" cx="1289.96" cy="524.78" fill="#808080"></circle><circle r="5" cx="1433.21" cy="-90.1" fill="#808080"></circle><circle r="5" cx="1424.33" cy="56.12" fill="#808080"></circle><circle r="5" cx="1416.13" cy="340.93" fill="#808080"></circle><circle r="5" cx="1420.36" cy="683.4" fill="#808080"></circle><circle r="5" cx="1574.65" cy="-96.68" fill="#808080"></circle><circle r="5" cx="1585.38" cy="77.35" fill="#808080"></circle><circle r="5" cx="1592.94" cy="383.98" fill="#808080"></circle></g><defs><mask id="SvgjsMask2720"><rect width="1440" height="560" fill="#ffffff"></rect></mask><linearGradient x1="50%" y1="0%" x2="50%" y2="100%" gradientUnits="userSpaceOnUse" id="SvgjsLinearGradient2721"><stop stop-color="#0e2a47" offset="0"></stop><stop stop-color="rgba(0, 0, 0, 1)" offset="1"></stop></linearGradient><radialGradient id="SvgjsRadialGradient2722"><stop stop-color="#ffffff" offset="0.1"></stop><stop stop-color="rgba(0, 0, 0, 1)" offset="0.2"></stop><stop stop-color="rgba(0, 0, 0, 0)" offset="1"></stop></radialGradient></defs></svg>